# Blender v2.93.6 OBJ File: 'card.blend'
# www.blender.org
o Cube_Cube.001
v -0.005000 -1.500000 0.744284
v -0.005000 -1.244284 1.000000
v -0.005000 -1.493589 0.801186
v -0.005000 -1.474676 0.855235
v -0.005000 -1.444211 0.903720
v -0.005000 -1.403720 0.944211
v -0.005000 -1.355235 0.974676
v -0.005000 -1.301186 0.993589
v -0.005000 1.244284 1.000000
v -0.005000 1.500000 0.744284
v -0.005000 1.301186 0.993589
v -0.005000 1.355235 0.974676
v -0.005000 1.403720 0.944211
v -0.005000 1.444211 0.903720
v -0.005000 1.474676 0.855235
v -0.005000 1.493589 0.801186
v -0.005000 -1.244284 -1.000000
v -0.005000 -1.500000 -0.744284
v -0.005000 -1.301186 -0.993589
v -0.005000 -1.355235 -0.974676
v -0.005000 -1.403720 -0.944211
v -0.005000 -1.444211 -0.903720
v -0.005000 -1.474676 -0.855235
v -0.005000 -1.493589 -0.801186
v -0.005000 1.500000 -0.744284
v -0.005000 1.244284 -1.000000
v -0.005000 1.493589 -0.801186
v -0.005000 1.474676 -0.855235
v -0.005000 1.444211 -0.903720
v -0.005000 1.403720 -0.944211
v -0.005000 1.355235 -0.974676
v -0.005000 1.301186 -0.993589
v 0.005000 -1.244284 1.000000
v 0.005000 -1.500000 0.744284
v 0.005000 -1.301186 0.993589
v 0.005000 -1.355235 0.974676
v 0.005000 -1.403720 0.944211
v 0.005000 -1.444211 0.903720
v 0.005000 -1.474676 0.855235
v 0.005000 -1.493589 0.801186
v 0.005000 1.500000 0.744284
v 0.005000 1.244284 1.000000
v 0.005000 1.493589 0.801186
v 0.005000 1.474676 0.855235
v 0.005000 1.444211 0.903720
v 0.005000 1.403720 0.944211
v 0.005000 1.355235 0.974676
v 0.005000 1.301186 0.993589
v 0.005000 -1.500000 -0.744284
v 0.005000 -1.244284 -1.000000
v 0.005000 -1.493589 -0.801186
v 0.005000 -1.474676 -0.855235
v 0.005000 -1.444211 -0.903720
v 0.005000 -1.403720 -0.944211
v 0.005000 -1.355235 -0.974676
v 0.005000 -1.301186 -0.993589
v 0.005000 1.244284 -1.000000
v 0.005000 1.500000 -0.744284
v 0.005000 1.301186 -0.993589
v 0.005000 1.355235 -0.974676
v 0.005000 1.403720 -0.944211
v 0.005000 1.444211 -0.903720
v 0.005000 1.474676 -0.855235
v 0.005000 1.493589 -0.801186
v 0.005000 -1.493589 -0.801186
v 0.005000 -1.500000 -0.744284
v -0.005000 -1.500000 -0.744284
v -0.005000 -1.493589 -0.801186
v 0.005000 -1.474676 -0.855235
v -0.005000 -1.474676 -0.855235
v 0.005000 -1.444211 -0.903720
v -0.005000 -1.444211 -0.903720
v 0.005000 -1.403720 -0.944211
v -0.005000 -1.403720 -0.944211
v 0.005000 -1.355235 -0.974676
v -0.005000 -1.355235 -0.974676
v 0.005000 -1.301186 -0.993589
v -0.005000 -1.301186 -0.993589
v 0.005000 -1.244284 -1.000000
v -0.005000 -1.244284 -1.000000
v -0.005000 1.493589 -0.801186
v -0.005000 1.500000 -0.744284
v 0.005000 1.500000 -0.744284
v 0.005000 1.493589 -0.801186
v -0.005000 1.474676 -0.855235
v 0.005000 1.474676 -0.855235
v -0.005000 1.444211 -0.903720
v 0.005000 1.444211 -0.903720
v -0.005000 1.403720 -0.944211
v 0.005000 1.403720 -0.944211
v -0.005000 1.355235 -0.974676
v 0.005000 1.355235 -0.974676
v -0.005000 1.301186 -0.993589
v 0.005000 1.301186 -0.993589
v -0.005000 1.244284 -1.000000
v 0.005000 1.244284 -1.000000
v -0.005000 -1.493589 0.801186
v -0.005000 -1.500000 0.744284
v 0.005000 -1.500000 0.744284
v 0.005000 -1.493589 0.801186
v -0.005000 -1.474676 0.855235
v 0.005000 -1.474676 0.855235
v -0.005000 -1.444211 0.903720
v 0.005000 -1.444211 0.903720
v -0.005000 -1.403720 0.944211
v 0.005000 -1.403720 0.944211
v -0.005000 -1.355235 0.974676
v 0.005000 -1.355235 0.974676
v -0.005000 -1.301186 0.993589
v 0.005000 -1.301186 0.993589
v -0.005000 -1.244284 1.000000
v 0.005000 -1.244284 1.000000
v 0.005000 1.493589 0.801186
v 0.005000 1.500000 0.744284
v -0.005000 1.500000 0.744284
v -0.005000 1.493589 0.801186
v 0.005000 1.474676 0.855235
v -0.005000 1.474676 0.855235
v 0.005000 1.444211 0.903720
v -0.005000 1.444211 0.903720
v 0.005000 1.403720 0.944211
v -0.005000 1.403720 0.944211
v 0.005000 1.355235 0.974676
v -0.005000 1.355235 0.974676
v 0.005000 1.301186 0.993589
v -0.005000 1.301186 0.993589
v 0.005000 1.244284 1.000000
v -0.005000 1.244284 1.000000
vt 0.603690 0.750000
vt 0.396310 1.000000
vt 0.396310 0.750000
vt 0.027894 0.032093
vt 0.072382 0.008441
vt 0.127858 0.000000
vt 0.875000 0.531964
vt 0.625000 0.718036
vt 0.625000 0.531964
vt 0.027894 0.032093
vt 0.072382 0.008441
vt 0.127858 0.000000
vt 0.603690 0.250000
vt 0.396310 0.500000
vt 0.396310 0.250000
vt 0.125000 0.531964
vt 0.375000 0.524852
vt 0.375000 0.531964
vt 0.125000 0.524852
vt 0.375000 0.518096
vt 0.125000 0.518096
vt 0.375000 0.512035
vt 0.125000 0.512035
vt 0.375000 0.500000
vt 0.383023 0.250000
vt 0.387064 0.500000
vt 0.383023 0.500000
vt 0.387064 0.250000
vt 0.391568 0.500000
vt 0.391568 0.250000
vt 0.875000 0.524852
vt 0.625000 0.524852
vt 0.875000 0.518096
vt 0.625000 0.518096
vt 0.875000 0.512035
vt 0.625000 0.500000
vt 0.616977 0.250000
vt 0.625000 0.250000
vt 0.616977 0.500000
vt 0.612936 0.250000
vt 0.612936 0.500000
vt 0.608432 0.250000
vt 0.608432 0.500000
vt 0.375000 0.718036
vt 0.125000 0.725148
vt 0.125000 0.718036
vt 0.375000 0.725148
vt 0.125000 0.731904
vt 0.375000 0.731904
vt 0.125000 0.737965
vt 0.375000 0.737965
vt 0.125000 0.750000
vt 0.383023 0.750000
vt 0.387064 1.000000
vt 0.383023 1.000000
vt 0.387064 0.750000
vt 0.391568 1.000000
vt 0.391568 0.750000
vt 0.875000 0.718036
vt 0.625000 0.725148
vt 0.875000 0.725148
vt 0.625000 0.731904
vt 0.875000 0.731904
vt 0.625000 0.737965
vt 0.625000 1.000000
vt 0.616977 0.750000
vt 0.625000 0.750000
vt 0.616977 1.000000
vt 0.612936 0.750000
vt 0.612936 1.000000
vt 0.608432 0.750000
vt 0.608432 1.000000
vt 0.603690 1.000000
vt 0.872141 0.000000
vt 0.999999 0.085239
vt 0.900592 0.002137
vt 0.927617 0.008441
vt 0.951860 0.018596
vt 0.972105 0.032093
vt 0.987337 0.048255
vt 0.996794 0.066271
vt 0.999999 0.914761
vt 0.000000 0.914761
vt 0.996794 0.933729
vt 0.872142 1.000000
vt 0.987337 0.951745
vt 0.972105 0.967907
vt 0.951860 0.981403
vt 0.927617 0.991559
vt 0.900593 0.997863
vt 0.127858 1.000000
vt 0.099407 0.997863
vt 0.072383 0.991559
vt 0.048140 0.981404
vt 0.027895 0.967907
vt 0.012662 0.951745
vt 0.003206 0.933729
vt 0.000000 0.085239
vt 0.003206 0.066271
vt 0.012662 0.048255
vt 0.048140 0.018597
vt 0.099407 0.002137
vt 0.872141 0.000000
vt 0.999999 0.085239
vt 0.900592 0.002137
vt 0.927617 0.008441
vt 0.951860 0.018596
vt 0.972105 0.032093
vt 0.987337 0.048255
vt 0.996794 0.066271
vt 0.999999 0.914761
vt 0.000000 0.914761
vt 0.996794 0.933729
vt 0.872142 1.000000
vt 0.987337 0.951745
vt 0.972105 0.967907
vt 0.951860 0.981404
vt 0.927617 0.991559
vt 0.900593 0.997863
vt 0.127858 1.000000
vt 0.099407 0.997863
vt 0.072383 0.991559
vt 0.048140 0.981404
vt 0.027895 0.967907
vt 0.012662 0.951745
vt 0.003206 0.933729
vt 0.000000 0.085239
vt 0.003206 0.066271
vt 0.012662 0.048255
vt 0.048140 0.018596
vt 0.099407 0.002137
vt 0.603690 0.500000
vt 0.125000 0.500000
vt 0.625000 0.512035
vt 0.375000 0.750000
vt 0.875000 0.737965
vn 0.0000 0.0561 0.9984
vn 0.0000 -0.0561 0.9984
vn 1.0000 0.0000 0.0000
vn 0.0000 0.9984 -0.0561
vn 0.0000 0.9984 0.0561
vn -1.0000 0.0000 0.0000
vn 0.0000 0.0561 -0.9984
vn 0.0000 -0.0561 -0.9984
vn 0.0000 -0.9984 -0.0561
vn 0.0000 -0.9749 -0.2225
vn 0.0000 -0.9010 -0.4339
vn 0.0000 -0.7818 -0.6235
vn 0.0000 -0.6235 -0.7818
vn 0.0000 -0.4339 -0.9010
vn 0.0000 -0.2225 -0.9749
vn 0.0000 0.9749 -0.2225
vn 0.0000 0.9010 -0.4339
vn 0.0000 0.7818 -0.6235
vn 0.0000 0.6235 -0.7818
vn 0.0000 0.4339 -0.9010
vn 0.0000 0.2225 -0.9749
vn 0.0000 -0.9984 0.0561
vn 0.0000 -0.9749 0.2225
vn 0.0000 -0.9010 0.4339
vn 0.0000 -0.7818 0.6235
vn 0.0000 -0.6235 0.7818
vn 0.0000 -0.4339 0.9010
vn 0.0000 -0.2225 0.9749
vn 0.0000 0.9749 0.2225
vn 0.0000 0.9010 0.4339
vn 0.0000 0.7818 0.6235
vn 0.0000 0.6235 0.7818
vn 0.0000 0.4339 0.9010
vn 0.0000 0.2225 0.9749
s 1
f 42/1/1 2/2/2 33/3/2
f 106/4/3 102/5/3 34/6/3
f 25/7/4 41/8/5 83/9/4
f 74/10/6 70/11/6 18/12/6
f 26/13/7 50/14/8 17/15/8
f 67/16/9 51/17/10 49/18/9
f 24/19/10 52/20/11 51/17/10
f 23/21/11 53/22/12 52/20/11
f 22/23/12 54/24/13 53/22/12
f 21/25/13 55/26/14 54/27/13
f 20/28/14 56/29/15 55/26/14
f 19/30/15 50/14/8 56/29/15
f 83/9/4 27/31/16 25/7/4
f 64/32/16 28/33/17 27/31/16
f 63/34/17 29/35/18 28/33/17
f 62/36/18 30/37/19 29/38/18
f 61/39/19 31/40/20 30/37/19
f 60/41/20 32/42/21 31/40/20
f 59/43/21 26/13/7 32/42/21
f 99/44/22 3/45/23 1/46/22
f 40/47/23 4/48/24 3/45/23
f 39/49/24 5/50/25 4/48/24
f 38/51/25 6/52/26 5/50/25
f 37/53/26 7/54/27 6/55/26
f 36/56/27 8/57/28 7/54/27
f 35/58/28 2/2/2 8/57/28
f 115/59/5 43/60/29 41/8/5
f 16/61/29 44/62/30 43/60/29
f 15/63/30 45/64/31 44/62/30
f 14/65/31 46/66/32 45/67/31
f 13/68/32 47/69/33 46/66/32
f 12/70/33 48/71/34 47/69/33
f 11/72/34 42/1/1 48/71/34
f 49/18/9 1/46/22 67/16/9
f 42/1/1 9/73/1 2/2/2
f 34/6/3 66/74/3 79/75/3
f 66/74/3 65/76/3 79/75/3
f 65/76/3 69/77/3 71/78/3
f 71/78/3 73/79/3 75/80/3
f 75/80/3 77/81/3 79/75/3
f 79/75/3 96/82/3 127/83/3
f 96/82/3 94/84/3 58/85/3
f 94/84/3 92/86/3 90/87/3
f 90/87/3 88/88/3 86/89/3
f 86/89/3 84/90/3 58/85/3
f 58/85/3 114/91/3 127/83/3
f 114/91/3 113/92/3 127/83/3
f 113/92/3 117/93/3 119/94/3
f 119/94/3 121/95/3 123/96/3
f 123/96/3 125/97/3 127/83/3
f 127/83/3 112/98/3 79/75/3
f 112/98/3 110/99/3 34/6/3
f 110/99/3 108/100/3 106/4/3
f 106/4/3 104/101/3 102/5/3
f 102/5/3 100/102/3 34/6/3
f 65/76/3 71/78/3 79/75/3
f 71/78/3 75/80/3 79/75/3
f 96/82/3 58/85/3 127/83/3
f 94/84/3 90/87/3 58/85/3
f 90/87/3 86/89/3 58/85/3
f 113/92/3 119/94/3 127/83/3
f 119/94/3 123/96/3 127/83/3
f 112/98/3 34/6/3 79/75/3
f 110/99/3 106/4/3 34/6/3
f 25/7/4 115/59/5 41/8/5
f 18/12/6 98/103/6 111/104/6
f 98/103/6 97/105/6 111/104/6
f 97/105/6 101/106/6 103/107/6
f 103/107/6 105/108/6 107/109/6
f 107/109/6 109/110/6 111/104/6
f 111/104/6 128/111/6 95/112/6
f 128/111/6 126/113/6 10/114/6
f 126/113/6 124/115/6 122/116/6
f 122/116/6 120/117/6 118/118/6
f 118/118/6 116/119/6 10/114/6
f 10/114/6 82/120/6 95/112/6
f 82/120/6 81/121/6 95/112/6
f 81/121/6 85/122/6 87/123/6
f 87/123/6 89/124/6 91/125/6
f 91/125/6 93/126/6 95/112/6
f 95/112/6 80/127/6 111/104/6
f 80/127/6 78/128/6 18/12/6
f 78/128/6 76/129/6 74/10/6
f 74/10/6 72/130/6 70/11/6
f 70/11/6 68/131/6 18/12/6
f 97/105/6 103/107/6 111/104/6
f 103/107/6 107/109/6 111/104/6
f 128/111/6 10/114/6 95/112/6
f 126/113/6 122/116/6 10/114/6
f 122/116/6 118/118/6 10/114/6
f 81/121/6 87/123/6 95/112/6
f 87/123/6 91/125/6 95/112/6
f 80/127/6 18/12/6 111/104/6
f 78/128/6 74/10/6 18/12/6
f 26/13/7 57/132/7 50/14/8
f 67/16/9 24/19/10 51/17/10
f 24/19/10 23/21/11 52/20/11
f 23/21/11 22/23/12 53/22/12
f 22/23/12 21/133/13 54/24/13
f 21/25/13 20/28/14 55/26/14
f 20/28/14 19/30/15 56/29/15
f 19/30/15 17/15/8 50/14/8
f 83/9/4 64/32/16 27/31/16
f 64/32/16 63/34/17 28/33/17
f 63/34/17 62/134/18 29/35/18
f 62/36/18 61/39/19 30/37/19
f 61/39/19 60/41/20 31/40/20
f 60/41/20 59/43/21 32/42/21
f 59/43/21 57/132/7 26/13/7
f 99/44/22 40/47/23 3/45/23
f 40/47/23 39/49/24 4/48/24
f 39/49/24 38/51/25 5/50/25
f 38/51/25 37/135/26 6/52/26
f 37/53/26 36/56/27 7/54/27
f 36/56/27 35/58/28 8/57/28
f 35/58/28 33/3/2 2/2/2
f 115/59/5 16/61/29 43/60/29
f 16/61/29 15/63/30 44/62/30
f 15/63/30 14/136/31 45/64/31
f 14/65/31 13/68/32 46/66/32
f 13/68/32 12/70/33 47/69/33
f 12/70/33 11/72/34 48/71/34
f 11/72/34 9/73/1 42/1/1
f 49/18/9 99/44/22 1/46/22
